<?xml version="1.0" encoding="UTF-8"?>
<!DOCTYPE svg PUBLIC "-//W3C//DTD SVG 1.1//EN" "http://www.w3.org/Graphics/SVG/1.1/DTD/svg11.dtd">
<!-- Creator: CorelDRAW -->
<svg xmlns="http://www.w3.org/2000/svg" xml:space="preserve" width="156.547mm" height="52.251mm" version="1.1" style="shape-rendering:geometricPrecision; text-rendering:geometricPrecision; image-rendering:optimizeQuality; fill-rule:evenodd; clip-rule:evenodd"
viewBox="0 0 15654.68 5225.1"
 xmlns:xlink="http://www.w3.org/1999/xlink"
 xmlns:xodm="http://www.corel.com/coreldraw/odm/2003">
 <defs>
  <style type="text/css">
   <![CDATA[
    .str1 {stroke:#FEFEFE;stroke-width:71.16;stroke-miterlimit:22.9256}
    .str0 {stroke:#F58634;stroke-width:71.16;stroke-miterlimit:22.9256}
    .fil2 {fill:none;fill-rule:nonzero}
    .fil4 {fill:#F58634}
    .fil0 {fill:#0186C7}
    .fil1 {fill:#FEFEFE;fill-rule:nonzero}
    .fil5 {fill:#373435;fill-rule:nonzero}
    .fil3 {fill:#F58634;fill-rule:nonzero}
   ]]>
  </style>
 </defs>
 <g id="Camada_x0020_1">
  <metadata id="CorelCorpID_0Corel-Layer"/>
  <g id="_1420234421072">
   <path class="fil0" d="M2546.28 306.93c1283.11,0 2354.55,1035.38 2393.2,2312.56 38.66,1277.19 -970.16,2312.55 -2253.27,2312.55 -1283.08,0 -2354.55,-1035.36 -2393.19,-2312.55 -38.64,-1277.18 970.17,-2312.56 2253.26,-2312.56z"/>
   <path class="fil1" d="M3485.17 3532.9l149.83 0 0 -885.01c0,-74.92 19.39,-105.43 77.66,-149.83l-66.58 -135.93c-41.62,16.64 -86,41.61 -133.16,41.61l-751.86 0 0 216.4 330.16 0 0 602.03c-407.84,0 -690.81,-224.73 -690.81,-785.14 0,-133.16 11.08,-579.84 366.21,-579.84 94.32,0 188.66,49.95 188.66,155.36 0,38.84 -11.11,77.69 -38.85,105.42l102.63 155.37 602.06 -388.4 -116.52 -172.01 -102.66 66.59c-141.48,-94.35 -319.06,-185.9 -493.82,-185.9 -615.92,0 -1106.98,463.34 -1106.98,1065.35 0,557.65 355.12,918.32 890.57,918.32 269.11,0 485.52,-94.34 671.38,-230.27l122.08 185.88z"/>
   <path class="fil2 str0" d="M3485.17 3532.9l149.83 0 0 -885.01c0,-74.92 19.39,-105.43 77.66,-149.83l-66.58 -135.93c-41.62,16.64 -86,41.61 -133.16,41.61l-751.86 0 0 216.4 330.16 0 0 602.03c-407.84,0 -690.81,-224.73 -690.81,-785.14 0,-133.16 11.08,-579.84 366.21,-579.84 94.32,0 188.66,49.95 188.66,155.36 0,38.84 -11.11,77.69 -38.85,105.42l102.63 155.37 602.06 -388.4 -116.52 -172.01 -102.66 66.59c-141.48,-94.35 -319.06,-185.9 -493.82,-185.9 -615.92,0 -1106.98,463.34 -1106.98,1065.35 0,557.65 355.12,918.32 890.57,918.32 269.11,0 485.52,-94.34 671.38,-230.27l122.08 185.88z"/>
   <path class="fil3" d="M4448.74 2405.45c189.44,0 263.32,98.5 263.32,282.26 0,176.18 -85.25,287.96 -263.32,287.96l0 -570.22zm-492.56 0l83.37 0 0 998.36 -87.15 0 0 147.77 587.29 0 0 -147.77 -90.95 0 0 -287.96 70.1 0 174.3 435.73 466 0 0 -147.77 -89.01 0 -212.18 -358.05c149.66,-56.83 263.33,-193.23 263.33,-358.05 0,-371.3 -403.52,-430.04 -566.44,-430.04l-598.66 0 0 147.78z"/>
   <path class="fil2 str1" d="M4448.74 2405.45c189.44,0 263.32,98.5 263.32,282.26 0,176.18 -85.25,287.96 -263.32,287.96l0 -570.22zm-492.56 0l83.37 0 0 998.36 -87.15 0 0 147.77 587.29 0 0 -147.77 -90.95 0 0 -287.96 70.1 0 174.3 435.73 466 0 0 -147.77 -89.01 0 -212.18 -358.05c149.66,-56.83 263.33,-193.23 263.33,-358.05 0,-371.3 -403.52,-430.04 -566.44,-430.04l-598.66 0 0 147.78z"/>
   <path class="fil3" d="M5939.81 3068.49l-310.7 0 149.67 -445.19 3.81 0 157.22 445.19zm-316.37 483.09l0 -147.77 -109.88 0 56.85 -161.03 428.11 0 56.85 161.03 -102.3 0 0 147.77 594.85 0 0 -147.77 -72 0 -403.49 -1146.14 -361.84 0 -392.15 1146.14 -75.78 0 0 147.77 380.78 0z"/>
   <path class="fil3" d="M7601.37 2610.04l-136.4 0 0 94.72 -327.74 0 0 -295.53 100.4 0c77.67,0 157.23,18.94 227.34,56.83l0 64.41 136.4 0 0 -272.8 -964.28 0 0 147.78 90.93 0 0 998.36 -90.93 0 0 147.77 630.85 0 0 -147.77 -130.71 0 0 -524.75 327.74 0 0 87.13 136.4 0 0 -356.15z"/>
   <polygon class="fil3" points="8351.69,3551.58 8351.69,3403.81 8266.43,3403.81 8266.43,2405.45 8351.69,2405.45 8351.69,2257.67 7777.66,2257.67 7777.66,2405.45 7857.24,2405.45 7857.24,3403.81 7777.66,3403.81 7777.66,3551.58 "/>
   <path class="fil3" d="M9482.78 2361.86c-92.82,-71.97 -185.64,-134.49 -306.89,-134.49 -380.78,0 -702.84,316.37 -702.84,744.51 0,428.14 299.32,610 621.39,610 274.68,0 439.49,-138.29 591.04,-352.36l-96.59 -96.62c-100.42,100.4 -179.97,159.14 -327.74,159.14 -193.26,0 -378.89,-229.23 -378.89,-604.33 0,-104.2 24.63,-280.37 162.93,-280.37 96.59,0 136.37,73.88 136.37,162.92 0,34.1 -17.04,77.67 -45.45,98.51l77.67 96.61 416.78 -333.42 -89.05 -109.88 -58.73 39.78z"/>
   <path class="fil3" d="M10420.68 3068.49l-310.7 0 149.66 -445.19 3.81 0 157.23 445.19zm-316.37 483.09l0 -147.77 -109.89 0 56.85 -161.03 428.14 0 56.82 161.03 -102.3 0 0 147.77 594.86 0 0 -147.77 -71.97 0 -403.55 -1146.14 -361.82 0 -392.14 1146.14 -75.78 0 0 147.77 380.78 0z"/>
   <path class="fil3" d="M12267.87 3068.49l-310.7 0 149.67 -445.19 3.81 0 157.22 445.19zm-316.36 483.09l0 -147.77 -109.87 0 56.83 -161.03 428.14 0 56.82 161.03 -102.3 0 0 147.77 594.88 0 0 -147.77 -72 0 -403.51 -1146.14 -361.85 0 -392.15 1146.14 -75.77 0 0 147.77 380.78 0z"/>
   <path class="fil3" d="M13455.81 2873.37l66.3 0c153.44,0 210.29,98.51 210.29,263.33 0,130.71 -18.93,278.47 -183.75,278.47 -62.51,0 -92.84,-26.52 -92.84,-121.24l0 -420.56zm0 -467.92c121.25,0 214.08,17.04 214.08,157.22 0,138.3 -94.74,162.93 -214.08,162.93l0 -320.15zm-409.19 998.36l-81.44 0 0 147.77 676.3 0c270.91,0 481.18,-94.73 481.18,-401.63 0,-215.96 -159.12,-340.99 -361.83,-361.83l0 -3.8c161.02,-20.83 280.36,-71.98 280.36,-253.85 0,-231.13 -225.42,-272.8 -409.19,-272.8l-663.04 0 0 147.78 77.66 0 0 998.36z"/>
   <path class="fil3" d="M15225.37 2257.67l-54.96 73.89c-94.71,-58.74 -214.07,-104.19 -325.84,-104.19 -276.57,0 -494.42,174.28 -494.42,422.45 0,445.19 735.03,412.99 735.03,613.8 0,73.89 -56.84,102.3 -119.36,102.3 -204.6,0 -386.48,-178.08 -517.19,-318.26l-225.43 320.15c170.51,119.36 352.36,214.07 564.54,214.07 282.29,0 558.88,-181.86 558.88,-431.93 0,-509.6 -735.06,-418.67 -735.06,-636.52 0,-45.47 60.63,-85.26 104.21,-85.26 153.45,0 299.31,145.87 407.3,242.5l221.63 -331.53 -119.33 -81.47z"/>
   <polygon class="fil4" points="5891.56,2092.19 6184.73,1744.6 5924.61,1743.75 5749.23,2089.41 "/>
   <path class="fil5" d="M5000.39 4332.69l0 -106.13 224.53 0 0 249.97c-22.81,26.31 -54.38,49.12 -95.61,68.42 -42.11,19.29 -83.31,28.93 -124.55,28.93 -50.86,0 -96.49,-12.28 -135.08,-37.71 -38.59,-24.55 -69.27,-62.27 -92.09,-112.27 -22.79,-49.12 -34.19,-107.87 -34.19,-175.42 0,-69.29 11.4,-128.05 34.19,-177.16 23.7,-49.12 53.5,-85.95 89.47,-110.51 36.84,-23.68 80.71,-35.97 132.45,-35.97 61.38,0 110.5,15.79 147.33,47.36 36.86,30.71 60.52,77.2 71.04,137.71l-102.61 23.68c-7.9,-32.45 -21.94,-57.02 -42.08,-74.55 -21.05,-16.67 -45.61,-25.44 -73.68,-25.44 -44.73,0 -80.7,16.67 -107.9,51.76 -27.19,34.2 -41.22,85.94 -41.22,156.99 0,75.43 14.91,132.43 44.75,171.91 25.43,34.2 59.64,50.87 102.6,50.87 21.06,0 42.11,-5.27 63.15,-14.03 21.93,-9.65 42.1,-22.81 58.76,-39.47l0 -78.94 -119.26 0z"/>
   <path class="fil5" d="M5400.9 4563.36l-99.08 0 0 -455.21 92.09 0 0 64.91c15.77,-30.7 29.81,-50.87 42.08,-60.52 12.28,-9.66 27.2,-14.91 42.99,-14.91 22.79,0 44.73,7.9 64.9,22.8l-30.71 104.38c-16.65,-13.16 -31.57,-19.3 -46.49,-19.3 -14.03,0 -25.43,5.27 -35.95,14.91 -10.51,10.53 -18.41,28.94 -22.81,55.25 -4.38,26.32 -7.02,75.43 -7.02,146.48l0 141.21z"/>
   <path class="fil5" d="M5646.78 4246.73l-89.46 -18.42c10.55,-46.48 28.96,-79.81 53.51,-99.98 25.43,-20.18 60.52,-30.7 107.87,-30.7 41.25,0 72.82,6.13 94.73,17.53 21.93,11.41 37.71,27.2 47.36,47.37 9.66,20.17 14.05,57.02 14.05,110.51l-0.88 140.34c0,39.47 1.75,69.29 4.37,88.59 3.52,19.29 8.78,39.46 17.56,61.39l-97.35 0 -13.16 -49.99c-16.67,20.17 -34.21,35.08 -53.51,45.61 -19.29,9.65 -40.34,14.9 -62.28,14.9 -35.95,0 -65.78,-12.28 -88.57,-36.83 -23.7,-24.56 -35.09,-57.02 -35.09,-97.35 0,-26.32 4.38,-48.24 14.04,-67.54 9.63,-19.3 22.78,-35.09 40.32,-46.49 16.67,-11.4 44.75,-21.04 82.46,-29.82 45.6,-10.52 78.06,-21.04 95.59,-29.82 0,-25.44 -1.74,-42.1 -5.26,-49.99 -3.49,-7.02 -10.51,-14.04 -19.29,-19.31 -9.64,-4.37 -23.68,-7.01 -40.33,-7.01 -18.44,0 -31.59,3.5 -42.11,12.28 -9.63,7.89 -18.44,22.81 -24.57,44.73zm131.56 97.36c-12.28,5.26 -32.45,11.4 -58.76,18.41 -30.69,7.9 -50.87,16.67 -60.5,26.31 -9.66,9.66 -14.04,22.82 -14.04,37.73 0,17.53 5.26,32.44 15.77,44.72 10.54,11.41 23.7,17.55 39.47,17.55 14.03,0 28.07,-5.26 41.23,-14.91 14.04,-9.66 23.69,-21.05 28.96,-34.2 5.25,-13.16 7.87,-36.84 7.87,-71.93l0 -23.68zm-108.75 -291.2l48.25 -128.05 111.39 0 -96.47 128.05 -63.17 0z"/>
   <path class="fil5" d="M5917.36 4108.15l55.26 0 0 -34.2c0,-41.23 4.38,-71.04 11.4,-89.47 7.9,-18.41 21.06,-33.33 38.59,-43.85 17.53,-10.52 38.58,-15.79 64.9,-15.79 27.19,0 55.26,5.27 81.57,14.91l-13.15 84.21c-15.8,-4.39 -30.72,-7.02 -44.72,-7.02 -14.04,0 -23.7,3.51 -29.84,12.28 -6.14,7.89 -9.64,23.67 -9.64,46.49l0 32.44 73.66 0 0 94.73 -73.66 0 0 360.48 -99.11 0 0 -360.48 -55.26 0 0 -94.73zm277.15 -61.39l0 -111.39 99.12 0 0 111.39 -99.12 0zm0 516.6l0 -455.21 99.12 0 0 455.21 -99.12 0z"/>
   <path class="fil5" d="M6709.78 4243.23l-97.35 21.05c-7.02,-48.24 -29.8,-71.92 -67.54,-71.92 -24.55,0 -43.85,10.52 -58.76,30.7 -14.89,21.04 -22.79,55.25 -22.79,104.36 0,54.38 7.9,92.1 22.79,114.9 14.03,21.92 34.21,33.32 58.76,33.32 19.3,0 34.21,-6.13 46.49,-19.29 11.39,-12.28 20.17,-35.08 25.46,-67.54l97.35 20.18c-20.18,109.64 -77.18,164.89 -172.8,164.89 -60.52,0 -105.24,-23.68 -135.08,-69.28 -28.93,-46.49 -43.84,-102.62 -43.84,-167.53 0,-78.06 16.64,-137.69 50,-178.05 33.31,-41.21 77.18,-61.39 130.68,-61.39 43.85,0 79.79,11.4 106.99,35.09 28.08,22.79 47.37,59.64 59.64,110.51z"/>
   <path class="fil5" d="M6845.28 4246.73l-89.45 -18.42c10.54,-46.48 28.96,-79.81 53.51,-99.98 25.43,-20.18 60.52,-30.7 107.86,-30.7 41.26,0 72.82,6.13 94.74,17.53 21.93,11.41 37.73,27.2 47.36,47.37 9.66,20.17 14.04,57.02 14.04,110.51l-0.88 140.34c0,39.47 1.76,69.29 4.4,88.59 3.5,19.29 8.75,39.46 17.53,61.39l-97.35 0 -13.15 -49.99c-16.68,20.17 -34.21,35.08 -53.51,45.61 -19.29,9.65 -40.35,14.9 -62.29,14.9 -35.94,0 -65.77,-12.28 -88.57,-36.83 -23.69,-24.56 -35.09,-57.02 -35.09,-97.35 0,-26.32 4.38,-48.24 14.04,-67.54 9.64,-19.3 22.82,-35.09 40.35,-46.49 16.65,-11.4 44.73,-21.04 82.44,-29.82 45.6,-10.52 78.05,-21.04 95.61,-29.82 0,-25.44 -1.76,-42.1 -5.29,-49.99 -3.49,-7.02 -10.51,-14.04 -19.29,-19.31 -9.63,-4.37 -23.67,-7.01 -40.32,-7.01 -18.44,0 -31.59,3.5 -42.11,12.28 -9.64,7.89 -18.42,22.81 -24.58,44.73zm131.59 97.36c-12.31,5.26 -32.48,11.4 -58.76,18.41 -30.72,7.9 -50.9,16.67 -60.53,26.31 -9.66,9.66 -14.03,22.82 -14.03,37.73 0,17.53 5.25,32.44 15.79,44.72 10.52,11.41 23.67,17.55 39.47,17.55 14.01,0 28.05,-5.26 41.21,-14.91 14.03,-9.66 23.69,-21.05 28.95,-34.2 5.26,-13.16 7.9,-36.84 7.9,-71.93l0 -23.68z"/>
   <path class="fil5" d="M7153.57 4443.2l98.23 0 0 85.95c0,49.12 -5.25,85.09 -16.65,108.76 -14.03,29.82 -37.71,51.75 -70.16,65.79l-19.29 -50c19.29,-7.89 33.3,-18.42 42.08,-32.45 7.9,-13.16 12.27,-32.46 13.15,-57.89l-47.36 0 0 -120.16z"/>
   <path class="fil5" d="M7518.01 4359l100.84 -12.28c11.42,79.82 49.13,120.17 112.3,120.17 31.57,0 57,-7.91 74.53,-24.57 18.42,-16.66 27.2,-36.83 27.2,-61.39 0,-14.04 -3.51,-26.32 -9.64,-35.96 -6.16,-9.65 -15.8,-18.42 -28.96,-24.56 -12.27,-6.14 -43.87,-17.54 -92.96,-32.46 -44.73,-13.14 -77.18,-28.05 -97.36,-43.85 -21.05,-15.79 -36.85,-35.95 -49.13,-61.4 -12.27,-25.43 -18.41,-53.49 -18.41,-82.45 0,-34.2 7.9,-64.89 23.67,-92.08 15.8,-28.07 36.86,-48.25 64.05,-62.28 28.07,-14.03 61.4,-21.05 101.72,-21.05 61.41,0 108.78,16.67 142.11,49.13 34.18,33.32 52.62,79.8 54.36,141.19l-104.37 5.27c-4.38,-33.32 -14.02,-57.01 -29.81,-70.16 -14.92,-13.16 -36.86,-20.18 -64.93,-20.18 -28.04,0 -49.98,6.14 -64.87,17.55 -14.92,11.4 -22.82,25.42 -22.82,42.98 0,16.65 7.02,30.69 21.06,42.97 14.03,11.4 45.61,24.55 94.7,38.59 52.65,14.91 90.37,31.58 113.15,48.24 23.7,16.66 41.23,37.72 53.51,64.02 12.28,26.32 18.44,58.77 18.44,96.49 0,54.38 -16.68,99.99 -50.01,136.82 -34.21,37.72 -85.96,56.13 -157.87,56.13 -126.31,0 -196.47,-71.91 -210.5,-214.88z"/>
   <path class="fil5" d="M8226.08 4418.65l98.26 20.17c-13.16,45.6 -33.33,79.81 -61.4,101.74 -28.08,21.92 -61.41,33.32 -100.88,33.32 -55.23,0 -98.23,-18.41 -128.07,-55.25 -35.94,-42.99 -53.5,-103.49 -53.5,-180.68 0,-75.43 17.56,-136.82 53.5,-182.44 30.72,-38.58 69.31,-57.88 117.56,-57.88 53.5,0 94.71,19.3 125.42,58.76 35.07,45.61 52.62,112.26 52.62,199.98l-0.87 14.03 -247.35 0c0.88,35.97 8.78,64.03 24.55,83.33 15.79,20.17 34.23,29.82 56.14,29.82 32.46,0 53.51,-21.93 64.02,-64.9zm5.29 -121.92c-0.88,-35.97 -8.78,-62.27 -22.82,-79.82 -14.03,-18.42 -31.57,-27.19 -50.86,-27.19 -21.06,0 -38.59,9.66 -52.63,28.07 -14.91,18.42 -21.93,44.73 -21.93,78.94l148.24 0z"/>
   <path class="fil5" d="M8490.53 4563.36l-99.12 0 0 -455.21 92.13 0 0 64.91c15.77,-30.7 29.8,-50.87 42.08,-60.52 12.27,-9.66 27.19,-14.91 42.96,-14.91 22.82,0 44.76,7.9 64.93,22.8l-30.72 104.38c-16.65,-13.16 -31.56,-19.3 -46.48,-19.3 -14.04,0 -25.44,5.27 -35.95,14.91 -10.54,10.53 -18.44,28.94 -22.82,55.25 -4.37,26.32 -7.01,75.43 -7.01,146.48l0 141.21z"/>
   <path class="fil5" d="M8661.84 4046.76l0 -111.39 99.11 0 0 111.39 -99.11 0zm0 516.6l0 -455.21 99.11 0 0 455.21 -99.11 0z"/>
   <path class="fil5" d="M8839.45 4593.18l113.15 16.67c1.76,16.66 7.02,28.06 15.77,35.08 8.78,7.01 21.93,10.52 41.23,10.52 21.05,0 38.59,-3.51 52.63,-10.52 8.78,-5.27 16.67,-14.03 21.05,-26.31 5.26,-11.4 7.9,-32.45 7.9,-63.15l0 -66.66c-14.92,24.56 -31.58,43.85 -50.01,56.14 -18.42,12.28 -39.47,18.41 -61.38,18.41 -41.23,0 -76.32,-18.41 -104.37,-56.13 -32.47,-42.99 -49.12,-100.86 -49.12,-174.54 0,-77.18 15.76,-135.96 46.48,-175.42 30.69,-40.34 67.55,-59.64 111.39,-59.64 22.81,0 43.85,6.13 63.14,18.42 19.29,12.28 35.97,30.69 50.89,56.13l0 -64.03 92.09 0 0 407.85c0,65.78 -6.14,113.14 -17.56,142.97 -12.27,28.94 -30.69,50.86 -56.12,65.77 -24.58,15.8 -58.76,22.81 -103.51,22.81 -40.33,0 -73.66,-5.27 -98.23,-15.79 -24.56,-11.4 -42.97,-27.18 -56.13,-49.11 -13.15,-21.05 -19.29,-46.5 -19.29,-74.56l0 -14.91zm87.71 -267.51c0,48.23 7.88,84.2 23.68,106.13 14.92,21.93 34.21,33.33 56.14,33.33 23.67,0 43.85,-11.4 60.5,-34.21 17.56,-21.93 25.46,-56.14 25.46,-102.61 0,-47.37 -7.9,-81.58 -23.7,-104.38 -16.65,-22.8 -36.83,-34.21 -60.52,-34.21 -22.79,0 -42.96,11.41 -57.88,33.34 -15.8,21.91 -23.68,56.12 -23.68,102.61z"/>
   <path class="fil5" d="M9368.76 4563.36l-99.12 0 0 -455.21 92.1 0 0 64.91c15.79,-30.7 29.83,-50.87 42.08,-60.52 12.3,-9.66 27.19,-14.91 42.99,-14.91 22.81,0 44.75,7.9 64.9,22.8l-30.69 104.38c-16.65,-13.16 -31.57,-19.3 -46.49,-19.3 -14.03,0 -25.43,5.27 -35.94,14.91 -10.54,10.53 -18.44,28.94 -22.82,55.25 -4.38,26.32 -7.01,75.43 -7.01,146.48l0 141.21z"/>
   <path class="fil5" d="M9614.63 4246.73l-89.48 -18.42c10.51,-46.48 28.95,-79.81 53.5,-99.98 25.43,-20.18 60.53,-30.7 107.87,-30.7 41.25,0 72.83,6.13 94.73,17.53 21.94,11.41 37.74,27.2 47.37,47.37 9.66,20.17 14.04,57.02 14.04,110.51l-0.88 140.34c0,39.47 1.76,69.29 4.4,88.59 3.49,19.29 8.76,39.46 17.51,61.39l-97.32 0 -13.17 -49.99c-16.67,20.17 -34.21,35.08 -53.5,45.61 -19.32,9.65 -40.35,14.9 -62.28,14.9 -35.97,0 -65.78,-12.28 -88.57,-36.83 -23.7,-24.56 -35.09,-57.02 -35.09,-97.35 0,-26.32 4.37,-48.24 14.03,-67.54 9.64,-19.3 22.79,-35.09 40.35,-46.49 16.65,-11.4 44.72,-21.04 82.43,-29.82 45.61,-10.52 78.06,-21.04 95.62,-29.82 0,-25.44 -1.76,-42.1 -5.28,-49.99 -3.5,-7.02 -10.52,-14.04 -19.29,-19.31 -9.64,-4.37 -23.68,-7.01 -40.33,-7.01 -18.44,0 -31.6,3.5 -42.11,12.28 -9.66,7.89 -18.42,22.81 -24.55,44.73zm131.56 97.36c-12.3,5.26 -32.47,11.4 -58.79,18.41 -30.69,7.9 -50.86,16.67 -60.5,26.31 -9.65,9.66 -14.04,22.82 -14.04,37.73 0,17.53 5.27,32.44 15.78,44.72 10.54,11.41 23.7,17.55 39.47,17.55 14.03,0 28.07,-5.26 41.22,-14.91 14.04,-9.66 23.7,-21.05 28.96,-34.2 5.26,-13.16 7.9,-36.84 7.9,-71.93l0 -23.68z"/>
   <path class="fil5" d="M9885.18 4108.15l55.27 0 0 -34.2c0,-41.23 4.37,-71.04 11.39,-89.47 7.9,-18.41 21.06,-33.33 38.59,-43.85 17.56,-10.52 38.59,-15.79 64.9,-15.79 27.2,0 55.27,5.27 81.58,14.91l-13.15 84.21c-15.78,-4.39 -30.7,-7.02 -44.73,-7.02 -14.04,0 -23.7,3.51 -29.84,12.28 -6.14,7.89 -9.63,23.67 -9.63,46.49l0 32.44 73.68 0 0 94.73 -73.68 0 0 360.48 -99.11 0 0 -360.48 -55.27 0 0 -94.73zm277.16 -61.39l0 -111.39 99.11 0 0 111.39 -99.11 0zm0 516.6l0 -455.21 99.11 0 0 455.21 -99.11 0z"/>
   <path class="fil5" d="M10426.76 4246.73l-89.45 -18.42c10.54,-46.48 28.95,-79.81 53.5,-99.98 25.44,-20.18 60.53,-30.7 107.9,-30.7 41.2,0 72.8,6.13 94.7,17.53 21.94,11.41 37.72,27.2 47.37,47.37 9.66,20.17 14.04,57.02 14.04,110.51l-0.88 140.34c0,39.47 1.76,69.29 4.38,88.59 3.52,19.29 8.78,39.46 17.56,61.39l-97.35 0 -13.16 -49.99c-16.68,20.17 -34.22,35.08 -53.51,45.61 -19.29,9.65 -40.35,14.9 -62.28,14.9 -35.97,0 -65.79,-12.28 -88.6,-36.83 -23.67,-24.56 -35.06,-57.02 -35.06,-97.35 0,-26.32 4.37,-48.24 14.03,-67.54 9.63,-19.3 22.79,-35.09 40.33,-46.49 16.67,-11.4 44.75,-21.04 82.45,-29.82 45.61,-10.52 78.06,-21.04 95.62,-29.82 0,-25.44 -1.76,-42.1 -5.28,-49.99 -3.5,-7.02 -10.52,-14.04 -19.3,-19.31 -9.63,-4.37 -23.67,-7.01 -40.32,-7.01 -18.44,0 -31.6,3.5 -42.11,12.28 -9.66,7.89 -18.42,22.81 -24.58,44.73zm131.59 97.36c-12.28,5.26 -32.45,11.4 -58.76,18.41 -30.72,7.9 -50.89,16.67 -60.52,26.31 -9.66,9.66 -14.04,22.82 -14.04,37.73 0,17.53 5.26,32.44 15.77,44.72 10.54,11.41 23.7,17.55 39.46,17.55 14.04,0 28.08,-5.26 41.23,-14.91 14.05,-9.66 23.7,-21.05 28.96,-34.2 5.26,-13.16 7.9,-36.84 7.9,-71.93l0 -23.68z"/>
   <path class="fil5" d="M11155.17 4418.65l98.26 20.17c-13.17,45.6 -33.34,79.81 -61.41,101.74 -28.07,21.92 -61.4,33.32 -100.85,33.32 -55.26,0 -98.23,-18.41 -128.06,-55.25 -35.97,-42.99 -53.51,-103.49 -53.51,-180.68 0,-75.43 17.54,-136.82 53.51,-182.44 30.69,-38.58 69.28,-57.88 117.52,-57.88 53.51,0 94.74,19.3 125.43,58.76 35.09,45.61 52.62,112.26 52.62,199.98l-0.88 14.03 -247.33 0c0.88,35.97 8.76,64.03 24.56,83.33 15.8,20.17 34.21,29.82 56.14,29.82 32.43,0 53.48,-21.93 64,-64.9zm5.28 -121.92c-0.88,-35.97 -8.78,-62.27 -22.79,-79.82 -14.06,-18.42 -31.6,-27.19 -50.89,-27.19 -21.06,0 -38.59,9.66 -52.62,28.07 -14.92,18.42 -21.92,44.73 -21.92,78.94l148.22 0z"/>
   <path class="fil5" d="M11525.74 4563.36l0 -627.99 167.53 0c62.26,0 102.61,2.63 121.91,8.77 30.72,9.65 55.26,30.69 75.44,62.27 20.17,31.57 29.8,72.81 29.8,122.8 0,44.73 -8.75,83.32 -25.43,114.02 -17.53,30.69 -38.58,51.75 -64.89,64.9 -25.44,12.28 -69.28,18.42 -132.44,18.42l-68.4 0 0 236.81 -103.52 0zm103.52 -521.87l0 178.93 57.88 0c38.59,0 64.9,-2.63 78.93,-7.89 14.04,-6.14 25.43,-15.8 34.19,-29.83 8.78,-14.03 13.16,-31.57 13.16,-52.62 0,-20.17 -4.38,-38.59 -14.02,-52.63 -8.78,-14.03 -20.17,-23.68 -33.33,-28.94 -14.03,-4.38 -42.1,-7.02 -85.95,-7.02l-50.86 0z"/>
   <path class="fil5" d="M12236.46 4563.36l0 -68.42c-14.02,24.57 -31.57,43.86 -53.5,57.89 -22.8,14.04 -45.61,21.05 -70.16,21.05 -24.56,0 -46.49,-6.13 -65.79,-19.29 -19.29,-13.16 -34.21,-31.58 -43.84,-55.26 -8.78,-23.69 -14.03,-57.88 -14.03,-103.49l0 -287.69 99.1 0 0 208.75c0,59.65 1.76,98.24 4.38,114.02 3.52,15.79 9.66,28.94 20.18,37.71 9.66,8.78 22.78,13.17 36.85,13.17 16.65,0 31.57,-6.16 45.6,-17.56 14.02,-11.39 23.68,-26.3 28.08,-44.72 4.38,-17.54 6.11,-57.88 6.11,-119.28l0 -192.09 99.11 0 0 455.21 -92.09 0z"/>
   <path class="fil5" d="M12412.31 4563.36l0 -627.99 99.1 0 0 225.41c14.92,-21.05 31.58,-36.84 49.99,-47.36 17.56,-10.54 37.73,-15.79 57.91,-15.79 43.85,0 81.55,20.18 111.38,59.64 30.69,39.46 45.61,98.24 45.61,175.42 0,78.06 -15.79,136.82 -46.49,178.93 -30.71,41.21 -67.53,62.26 -109.65,62.26 -21.03,0 -42.08,-6.13 -63.13,-20.17 -20.18,-13.15 -37.72,-32.45 -52.63,-57l0 66.65 -92.09 0zm98.22 -237.69c0,39.48 3.53,69.3 11.4,90.34 7.04,20.17 17.56,35.96 31.6,47.36 14.04,10.53 28.04,15.78 42.96,15.78 21.94,0 40.35,-11.4 56.15,-34.2 14.89,-22.8 22.79,-58.76 22.79,-107.88 0,-52.63 -7.9,-89.46 -23.67,-113.14 -14.92,-22.8 -35.1,-34.21 -58.76,-34.21 -22.82,0 -42.11,11.41 -58.77,33.34 -15.8,22.8 -23.7,56.99 -23.7,102.61z"/>
   <polygon class="fil5" points="12842.52,4563.36 12941.64,4563.36 12941.64,3935.37 12842.52,3935.37 "/>
   <path class="fil5" d="M13028.89 4046.76l0 -111.39 99.11 0 0 111.39 -99.11 0zm0 516.6l0 -455.21 99.11 0 0 455.21 -99.11 0z"/>
   <path class="fil5" d="M13540.65 4243.23l-97.35 21.05c-7.02,-48.24 -29.83,-71.92 -67.52,-71.92 -24.57,0 -43.87,10.52 -58.78,30.7 -14.89,21.04 -22.79,55.25 -22.79,104.36 0,54.38 7.9,92.1 22.79,114.9 14.03,21.92 34.21,33.32 58.78,33.32 19.3,0 34.19,-6.13 46.47,-19.29 11.4,-12.28 20.17,-35.08 25.46,-67.54l97.35 20.18c-20.18,109.64 -77.2,164.89 -172.79,164.89 -60.53,0 -105.25,-23.68 -135.09,-69.28 -28.93,-46.49 -43.85,-102.62 -43.85,-167.53 0,-78.06 16.66,-137.69 50.01,-178.05 33.31,-41.21 77.18,-61.39 130.69,-61.39 43.84,0 79.79,11.4 106.98,35.09 28.07,22.79 47.37,59.64 59.64,110.51z"/>
   <path class="fil5" d="M13601.62 4046.76l0 -111.39 99.11 0 0 111.39 -99.11 0zm0 516.6l0 -455.21 99.11 0 0 455.21 -99.11 0z"/>
   <path class="fil5" d="M14130.04 4563.36l-92.09 0 0 -66.65c-14.9,25.43 -32.46,44.72 -53.51,57.88 -20.17,13.16 -41.2,19.29 -63.13,19.29 -41.24,0 -78.06,-21.05 -108.78,-62.26 -30.69,-42.11 -46.46,-100.87 -46.46,-178.93 0,-77.18 14.89,-135.96 45.58,-175.42 29.83,-40.34 67.54,-59.64 111.41,-59.64 21.06,0 40.32,5.25 57.88,15.79 18.42,10.52 35.1,26.31 49.99,47.36l0 -225.41 99.11 0 0 627.99zm-263.13 -237.69c0,41.22 3.53,71.92 10.55,92.98 6.99,20.17 16.65,35.08 29.81,45.59 13.15,9.66 28.07,14.91 43.84,14.91 21.94,0 40.35,-11.4 56.15,-35.08 15.79,-23.67 24.55,-58.75 24.55,-106.12 0,-52.62 -7.88,-90.34 -23.67,-114.02 -15.8,-22.8 -35.09,-34.21 -58.76,-34.21 -22.82,0 -42.11,11.41 -58.77,34.21 -15.8,21.93 -23.7,56.12 -23.7,101.74z"/>
   <path class="fil5" d="M14288.36 4246.73l-89.49 -18.42c10.55,-46.48 28.96,-79.81 53.51,-99.98 25.43,-20.18 60.52,-30.7 107.89,-30.7 41.21,0 72.8,6.13 94.71,17.53 21.94,11.41 37.73,27.2 47.37,47.37 9.66,20.17 14.04,57.02 14.04,110.51l-0.88 140.34c0,39.47 1.76,69.29 4.4,88.59 3.49,19.29 8.75,39.46 17.53,61.39l-97.35 0 -13.16 -49.99c-16.67,20.17 -34.21,35.08 -53.5,45.61 -19.3,9.65 -40.35,14.9 -62.29,14.9 -35.94,0 -65.77,-12.28 -88.57,-36.83 -23.7,-24.56 -35.09,-57.02 -35.09,-97.35 0,-26.32 4.38,-48.24 14.04,-67.54 9.66,-19.3 22.79,-35.09 40.34,-46.49 16.66,-11.4 44.73,-21.04 82.44,-29.82 45.61,-10.52 78.06,-21.04 95.62,-29.82 0,-25.44 -1.77,-42.1 -5.26,-49.99 -3.52,-7.02 -10.54,-14.04 -19.32,-19.31 -9.63,-4.37 -23.67,-7.01 -40.33,-7.01 -18.41,0 -31.59,3.5 -42.11,12.28 -9.66,7.89 -18.41,22.81 -24.54,44.73zm131.56 97.36c-12.28,5.26 -32.45,11.4 -58.77,18.41 -30.72,7.9 -50.89,16.67 -60.52,26.31 -9.66,9.66 -14.04,22.82 -14.04,37.73 0,17.53 5.26,32.44 15.8,44.72 10.51,11.41 23.67,17.55 39.45,17.55 14.05,0 28.07,-5.26 41.25,-14.91 14.01,-9.66 23.67,-21.05 28.93,-34.2 5.25,-13.16 7.9,-36.84 7.9,-71.93l0 -23.68z"/>
   <path class="fil5" d="M14942.2 4563.36l-92.09 0 0 -66.65c-14.92,25.43 -32.46,44.72 -53.51,57.88 -20.18,13.16 -41.23,19.29 -63.17,19.29 -41.2,0 -78.02,-21.05 -108.74,-62.26 -30.69,-42.11 -46.48,-100.87 -46.48,-178.93 0,-77.18 14.91,-135.96 45.6,-175.42 29.83,-40.34 67.55,-59.64 111.39,-59.64 21.05,0 40.34,5.25 57.9,15.79 18.42,10.52 35.09,26.31 49.99,47.36l0 -225.41 99.11 0 0 627.99zm-263.13 -237.69c0,41.22 3.51,71.92 10.52,92.98 7.02,20.17 16.68,35.08 29.84,45.59 13.15,9.66 28.07,14.91 43.84,14.91 21.93,0 40.35,-11.4 56.14,-35.08 15.78,-23.67 24.56,-58.75 24.56,-106.12 0,-52.62 -7.9,-90.34 -23.67,-114.02 -15.8,-22.8 -35.1,-34.21 -58.79,-34.21 -22.79,0 -42.08,11.41 -58.76,34.21 -15.78,21.93 -23.68,56.12 -23.68,101.74z"/>
   <path class="fil5" d="M15242.59 4418.65l98.26 20.17c-13.19,45.6 -33.36,79.81 -61.43,101.74 -28.05,21.92 -61.38,33.32 -100.85,33.32 -55.27,0 -98.23,-18.41 -128.06,-55.25 -35.95,-42.99 -53.51,-103.49 -53.51,-180.68 0,-75.43 17.56,-136.82 53.51,-182.44 30.71,-38.58 69.3,-57.88 117.52,-57.88 53.5,0 94.73,19.3 125.42,58.76 35.1,45.61 52.66,112.26 52.66,199.98l-0.89 14.03 -247.35 0c0.88,35.97 8.78,64.03 24.55,83.33 15.8,20.17 34.22,29.82 56.15,29.82 32.45,0 53.51,-21.93 64.02,-64.9zm5.25 -121.92c-0.88,-35.97 -8.75,-62.27 -22.78,-79.82 -14.04,-18.42 -31.57,-27.19 -50.89,-27.19 -21.03,0 -38.59,9.66 -52.6,28.07 -14.92,18.42 -21.94,44.73 -21.94,78.94l148.21 0z"/>
  </g>
 </g>
</svg>
